<svg width="18" height="19" viewBox="0 0 18 19" fill="none" xmlns="http://www.w3.org/2000/svg">
<path d="M12.9262 12.1125C11.7832 12.1123 10.6561 11.8441 9.63546 11.3296C8.61479 10.8151 7.72893 10.0685 7.04892 9.14973C6.36892 8.23098 5.91372 7.16564 5.71983 6.03918C5.52594 4.91272 5.59876 3.7565 5.93246 2.66327C4.82483 3.17381 3.86255 3.95339 3.1333 4.93099C2.40405 5.90859 1.93101 7.05312 1.75728 8.26032C1.58355 9.46751 1.71465 10.699 2.13863 11.8426C2.56261 12.9861 3.26601 14.0054 4.18472 14.8076C5.10344 15.6097 6.20827 16.1693 7.39856 16.4352C8.58885 16.7011 9.82676 16.6649 10.9995 16.33C12.1722 15.9951 13.2425 15.3721 14.1129 14.5176C14.9832 13.6632 15.6259 12.6046 15.9825 11.4383C15.0248 11.8823 13.9818 12.1124 12.9262 12.1125Z" fill="#666666"/>
</svg>
